<?xml version="1.0" standalone="no"?>
<!DOCTYPE svg PUBLIC "-//W3C//DTD SVG 20010904//EN"
 "http://www.w3.org/TR/2001/REC-SVG-20010904/DTD/svg10.dtd">
<svg version="1.0" xmlns="http://www.w3.org/2000/svg"
 width="1080.000000pt" height="1080.000000pt" viewBox="0 0 1080.000000 1080.000000"
 preserveAspectRatio="xMidYMid meet">

<g transform="translate(0.000000,1080.000000) scale(0.100000,-0.100000)"
fill="#000000" stroke="none">
<path d="M0 5400 l0 -5400 5400 0 5400 0 0 5400 0 5400 -5400 0 -5400 0 0
-5400z m5895 4976 c617 -65 1162 -221 1710 -491 1754 -863 2844 -2663 2791
-4610 -25 -950 -304 -1841 -821 -2625 -308 -467 -732 -917 -1175 -1249 -749
-560 -1602 -888 -2555 -982 -170 -17 -720 -17 -890 0 -843 83 -1601 347 -2294
798 -550 358 -1068 875 -1436 1433 -406 615 -678 1336 -774 2045 -40 296 -45
379 -45 705 0 326 5 409 45 705 125 926 540 1839 1164 2560 182 211 448 467
665 641 590 475 1314 819 2057 979 261 56 467 84 808 109 108 8 618 -4 750
-18z"/>
<path d="M2400 7641 c-6 -16 -10 -45 -9 -65 2 -19 1 -38 -3 -41 -3 -4 -23 16
-44 44 -21 27 -42 47 -47 44 -5 -3 -7 -28 -4 -54 7 -58 -3 -62 -33 -14 -12 19
-26 35 -32 35 -11 0 -7 -52 7 -82 4 -11 3 -18 -4 -18 -7 0 -19 17 -28 38 -15
37 -16 37 -25 12 -5 -14 -7 -33 -4 -42 6 -25 -11 -32 -23 -11 -16 27 -31 -1
-31 -59 0 -50 -9 -59 -30 -33 -29 35 -40 9 -15 -39 21 -40 19 -47 -11 -40 -24
6 -26 5 -19 -17 3 -13 20 -43 36 -67 33 -49 34 -52 14 -52 -8 0 -15 -3 -15 -7
0 -17 53 -99 88 -138 l37 -40 60 61 c94 96 258 163 396 164 112 0 245 -69 232
-121 -14 -56 -43 -64 -61 -16 -17 47 -74 82 -136 83 -38 1 -54 -4 -66 -18 -8
-11 -35 -24 -60 -29 -44 -10 -110 -51 -110 -70 0 -5 20 -9 45 -9 40 0 45 -3
51 -27 10 -39 30 -67 59 -83 14 -7 25 -16 25 -19 0 -4 -22 -33 -50 -66 -37
-44 -50 -68 -50 -92 0 -72 138 -170 224 -160 88 12 168 27 186 37 55 30 75
111 30 125 -27 8 -80 60 -80 78 0 8 21 24 48 35 26 12 41 21 33 22 -8 0 -34
-10 -58 -21 -41 -20 -50 -20 -119 -10 -41 6 -89 18 -106 27 l-31 16 24 19 c48
38 162 112 198 128 24 10 35 22 33 32 -2 9 11 30 28 47 25 26 30 38 30 81 0
74 -13 98 -105 187 -62 60 -86 91 -96 122 -13 46 -25 52 -45 25 -12 -17 -14
-17 -28 2 -14 18 -21 51 -17 82 5 41 -39 5 -63 -52 -7 -16 -25 17 -32 58 -4
20 -10 37 -15 37 -11 0 -22 -39 -21 -73 1 -41 -20 -28 -36 21 -8 23 -17 42
-21 42 -10 0 -32 -71 -25 -82 3 -4 -1 -8 -9 -8 -8 0 -19 21 -27 50 -7 28 -17
50 -21 50 -3 0 -12 -13 -19 -29z m324 -553 c22 -31 20 -51 -8 -78 -16 -15 -31
-20 -43 -16 -15 6 -14 8 7 19 33 17 37 44 9 73 -22 24 -22 24 -1 24 11 0 28
-10 36 -22z"/>
<path d="M2958 7063 c6 -2 18 -2 25 0 6 3 1 5 -13 5 -14 0 -19 -2 -12 -5z"/>
<path d="M3021 7050 c44 -13 81 -43 111 -89 33 -52 38 -46 7 9 -23 41 -92 90
-124 89 -16 -1 -15 -2 6 -9z"/>
<path d="M2183 6965 c-3 -9 -3 -18 -1 -21 3 -3 8 4 11 16 6 23 -1 27 -10 5z"/>
<path d="M2845 6951 c-52 -25 -82 -48 -73 -57 5 -4 16 0 26 9 65 59 255 64
312 7 26 -26 60 -35 60 -16 0 9 -9 16 -20 16 -11 0 -20 4 -20 9 0 5 -22 18
-49 30 -65 28 -179 29 -236 2z"/>
<path d="M1735 6920 c-3 -6 0 -10 7 -10 7 0 24 -16 37 -35 22 -33 126 -122
161 -139 8 -4 2 3 -15 16 -16 12 -65 57 -107 100 -43 42 -80 73 -83 68z"/>
<path d="M3030 6900 c-30 -6 -27 -7 25 -8 42 0 54 2 40 8 -23 10 -19 10 -65 0z"/>
<path d="M2161 6854 c0 -11 3 -14 6 -6 3 7 2 16 -1 19 -3 4 -6 -2 -5 -13z"/>
<path d="M1711 6844 c0 -11 3 -14 6 -6 3 7 2 16 -1 19 -3 4 -6 -2 -5 -13z"/>
<path d="M1720 6804 c0 -20 33 -56 123 -131 50 -43 97 -84 104 -93 7 -9 12
-10 13 -4 0 7 -42 46 -92 89 -51 42 -105 92 -120 112 -16 20 -28 32 -28 27z"/>
<path d="M2176 6797 c3 -10 9 -15 12 -12 3 3 0 11 -7 18 -10 9 -11 8 -5 -6z"/>
<path d="M2193 6735 c0 -22 2 -30 4 -17 2 12 2 30 0 40 -3 9 -5 -1 -4 -23z"/>
<path d="M1961 6726 c2 -2 15 -9 29 -15 24 -11 24 -11 6 3 -16 13 -49 24 -35
12z"/>
<path d="M2165 6660 c3 -5 14 -10 24 -10 55 0 234 -121 217 -148 -3 -5 -38
-19 -78 -31 -40 -13 -80 -26 -88 -30 -24 -13 -24 -41 0 -58 29 -20 22 -54 -14
-72 -38 -18 -54 -8 -83 50 -28 57 -29 110 -3 134 11 10 20 23 20 28 0 6 -13
-2 -30 -18 -36 -34 -36 -46 -9 -127 21 -63 19 -71 -18 -82 -17 -5 -32 3 -68
38 l-46 46 3 72 c2 55 8 80 26 106 30 44 22 52 -12 12 -23 -29 -26 -40 -26
-115 0 -75 3 -87 26 -114 l26 -31 -24 0 c-38 0 -92 33 -99 60 -15 54 -10 121
12 152 12 16 19 31 16 34 -2 3 -15 -11 -27 -30 -16 -26 -45 -48 -110 -81 -164
-85 -291 -216 -364 -377 -51 -112 -55 -135 -111 -613 -23 -204 -51 -436 -75
-629 -17 -135 -12 -323 9 -387 67 -199 196 -332 386 -397 l80 -27 2618 -3
c1439 -1 2617 -6 2617 -10 0 -4 -9 -20 -20 -37 -16 -25 -20 -27 -26 -12 -3 10
-19 24 -35 32 -40 21 -69 5 -110 -60 l-34 -54 -26 25 c-35 33 -83 33 -105 -2
-15 -21 -16 -43 -11 -150 7 -137 21 -180 62 -190 49 -12 71 2 100 67 l28 62
12 -30 c15 -34 54 -50 85 -33 11 6 34 36 51 66 28 49 33 53 44 37 11 -14 9
-20 -10 -35 -18 -14 -25 -32 -30 -76 -16 -153 -15 -150 -40 -156 -38 -10 -104
-93 -121 -154 -23 -80 -16 -183 16 -217 36 -39 74 -34 125 18 23 23 44 49 47
57 4 12 9 12 32 -4 39 -25 87 -14 124 29 28 31 33 33 60 23 41 -16 95 1 157
48 40 31 51 35 66 26 50 -32 120 9 199 116 69 93 81 148 38 175 -29 19 -62 -1
-98 -58 -19 -30 -39 -55 -43 -55 -13 0 1 90 30 200 14 52 25 110 24 128 0 19
3 31 9 27 14 -9 72 19 113 54 39 35 53 74 38 113 l-10 25 86 2 85 2 -7 -58
c-10 -88 -35 -193 -46 -193 -21 0 -59 -50 -59 -78 0 -16 -14 -56 -31 -89 -39
-76 -50 -170 -25 -208 37 -56 96 -51 165 14 l34 32 19 -21 c25 -27 77 -26 120
4 31 21 37 22 54 9 25 -19 84 -11 121 15 26 18 31 19 57 5 34 -18 65 -11 105
23 l31 26 26 -21 c33 -26 80 -27 118 -2 28 18 29 18 47 0 53 -53 151 19 120
88 -9 20 -9 29 2 42 7 9 21 37 31 63 9 26 30 66 46 90 34 49 36 67 15 107 -16
32 -33 41 -75 41 -36 0 -53 -23 -81 -110 -12 -36 -33 -78 -47 -95 -56 -68 -83
-97 -88 -93 -2 3 6 37 17 76 12 39 19 78 15 87 -7 19 -65 45 -101 45 -54 0
-105 -44 -202 -173 -24 -32 -47 -57 -52 -57 -5 0 2 28 15 62 16 40 23 75 20
94 -4 27 2 38 40 75 49 48 57 84 24 114 -11 10 -34 18 -52 17 -27 -1 -42 -11
-81 -54 -64 -71 -81 -103 -67 -128 8 -15 6 -27 -10 -52 -11 -18 -20 -44 -20
-57 0 -23 -35 -91 -47 -91 -14 0 8 134 36 222 27 82 30 101 20 120 -16 29 -39
47 -61 48 -21 0 -21 1 -8 34 13 34 39 33 51 -2 12 -34 61 -66 89 -57 12 4 31
23 44 44 l24 37 80 2 c70 1 84 -2 113 -24 41 -30 97 -32 180 -4 l59 20 22 -20
c13 -12 35 -20 57 -20 41 0 136 41 143 61 3 10 13 5 30 -16 25 -28 31 -30 100
-30 50 0 87 6 114 18 l41 19 31 -31 c22 -22 40 -31 64 -31 120 0 244 98 255
202 7 64 -35 147 -79 159 -33 9 -114 -10 -132 -30 -8 -9 -35 -39 -60 -67 -54
-60 -216 -147 -216 -116 0 12 113 82 132 82 17 0 58 41 58 57 0 6 18 33 41 59
73 89 132 211 158 329 6 28 22 151 36 275 14 124 29 257 35 295 5 39 14 113
20 165 5 52 19 169 31 260 31 253 34 333 15 425 -24 118 -77 216 -161 300
-105 105 -216 158 -368 175 -50 6 -1254 10 -3066 10 l-2983 0 60 -40 c75 -51
165 -146 198 -212 14 -27 23 -52 21 -54 -2 -2 -20 3 -40 11 -45 19 -174 20
-242 1 -60 -16 -108 -40 -239 -118 -273 -165 -391 -212 -531 -211 -49 1 -96
-3 -102 -9 -10 -8 -13 -5 -13 11 0 24 -22 28 -40 6 -19 -23 -30 -18 -30 15 0
34 -14 39 -30 10 -16 -29 -30 -24 -30 10 0 24 -7 33 -40 50 -21 11 -48 20 -59
20 -36 0 -130 41 -146 63 -22 32 -18 86 10 143 32 64 60 90 123 114 45 17 52
18 63 4 21 -25 83 -53 120 -53 19 -1 51 -1 72 -2 20 0 49 -1 65 0 15 0 37 0
50 -1 28 0 72 38 72 63 0 10 -12 29 -27 43 -20 19 -23 26 -12 29 8 3 52 19 99
37 155 59 215 71 367 77 154 6 184 18 54 22 -75 2 -234 -19 -293 -39 -25 -8
-33 -4 -74 33 -54 50 -112 84 -174 103 -54 17 -63 17 -55 4z m5090 -262 l1820
-3 83 -39 c65 -31 96 -54 143 -103 54 -59 99 -127 99 -153 0 -7 -200 -10 -629
-10 -529 0 -630 -2 -634 -14 -6 -14 -21 -150 -18 -162 0 -3 296 -6 656 -7 431
-1 654 -5 652 -12 -1 -6 -217 -11 -617 -12 -338 -2 -621 -3 -627 -3 -7 0 -13
-9 -13 -20 0 -20 7 -20 630 -20 574 0 630 -1 630 -16 0 -9 -14 -129 -30 -268
-17 -138 -37 -307 -45 -376 -8 -69 -24 -206 -35 -305 -12 -99 -28 -209 -37
-245 -31 -132 -134 -292 -196 -304 -18 -3 -49 -15 -70 -26 l-38 -21 -20 25
c-60 76 -240 5 -264 -103 -10 -47 -23 -37 -17 14 5 53 -11 78 -67 101 -45 19
-83 10 -127 -28 l-35 -31 -16 22 c-33 48 -105 45 -138 -6 l-17 -25 -19 20
c-36 40 -85 40 -129 2 -23 -20 -60 -27 -60 -11 0 4 10 23 23 42 17 26 34 37
71 46 60 15 76 28 76 63 0 39 -34 65 -84 64 -98 -2 -201 -98 -235 -219 -8 -27
-22 -46 -44 -60 -17 -11 -33 -30 -35 -43 -3 -18 -10 -22 -43 -22 -33 0 -39 3
-39 21 0 83 -117 91 -207 14 -35 -30 -48 -35 -92 -35 -28 0 -51 3 -51 6 0 4
14 22 30 41 47 53 40 100 -18 118 -41 12 -76 -12 -127 -90 l-50 -75 -2745 2
-2745 3 -65 22 c-140 48 -252 153 -300 280 -24 64 -41 143 -34 155 7 11 614
10 614 -1 0 -5 -17 -15 -37 -22 -54 -17 -131 -93 -144 -141 -5 -22 -9 -44 -7
-49 3 -8 85 27 121 53 23 17 30 6 47 -77 7 -36 18 -65 24 -65 6 0 22 16 35 35
41 60 72 87 87 74 8 -6 14 -16 14 -22 0 -20 42 -97 52 -97 26 0 88 117 88 166
0 16 5 35 11 41 7 7 15 29 18 50 6 35 9 38 38 36 20 -2 33 3 37 12 5 13 42 15
246 15 236 0 242 0 290 -25 27 -13 51 -29 55 -35 17 -27 94 -54 180 -61 50 -5
103 -11 118 -15 26 -6 28 -5 21 20 -16 64 -20 61 108 59 l117 -2 -6 29 -5 29
878 3 c829 3 882 4 929 22 67 25 109 59 128 104 9 20 23 98 31 172 36 326 47
416 51 438 5 21 8 22 143 22 240 0 342 28 433 119 72 72 101 151 102 277 l0
84 463 0 462 0 6 28 c14 72 18 160 7 167 -22 13 -41 -16 -41 -61 0 -23 -4 -54
-10 -69 l-10 -26 -457 1 -458 1 2 -28 c5 -55 -18 -177 -43 -234 -29 -64 -88
-125 -151 -157 -80 -41 -153 -55 -323 -61 l-164 -6 -17 -145 c-10 -80 -25
-210 -34 -290 -19 -167 -37 -215 -94 -255 -90 -62 -52 -60 -1003 -63 -592 -2
-868 1 -868 8 0 7 261 10 813 10 464 0 844 5 887 10 95 13 178 52 204 98 14
26 27 102 52 310 39 322 42 342 54 342 142 0 347 13 387 24 185 51 273 170
273 371 0 83 0 83 28 90 16 3 225 4 465 3 l436 -3 5 35 c3 19 8 61 12 93 l6
57 -828 -2 c-877 -4 -864 -3 -935 -51 -55 -37 -74 -86 -92 -237 -73 -617 -110
-927 -113 -937 -3 -10 -226 -13 -1072 -13 -588 0 -1071 3 -1074 6 -10 9 95
176 139 222 31 33 47 42 61 38 39 -13 92 99 92 193 0 55 -22 143 -45 177 -21
32 -82 70 -136 84 -64 17 -72 27 -65 76 5 40 69 164 84 164 4 0 14 -4 22 -10
9 -5 19 -5 27 2 9 7 18 7 29 -3 14 -11 18 -11 29 4 14 20 31 22 38 5 3 -9 16
-2 39 20 31 30 41 33 117 39 92 7 111 21 111 80 0 68 -41 123 -166 223 -44 36
-64 59 -72 87 -6 21 -30 62 -52 91 -22 29 -40 53 -40 55 0 1 512 1 1137 0 626
-2 1957 -4 2958 -5z m-4003 -200 c88 -47 213 -171 222 -221 8 -45 -11 -91 -39
-94 -11 -1 -51 -5 -88 -8 -56 -6 -72 -11 -93 -33 -24 -26 -25 -26 -36 -8 -10
18 -11 18 -29 -5 -17 -23 -18 -23 -39 -4 -21 19 -22 19 -32 2 -6 -12 -14 -15
-21 -9 -7 5 -38 12 -69 15 -77 7 -158 52 -244 134 -38 36 -79 72 -92 81 -22
17 -22 17 65 68 185 109 236 126 351 120 69 -4 93 -10 144 -38z m-1569 -10
c-4 -13 -8 -40 -7 -60 0 -51 34 -84 103 -104 147 -41 137 -34 166 -109 l16
-40 16 30 17 30 8 -34 9 -33 23 21 c23 22 39 19 29 -5 -7 -18 7 -18 46 2 30
15 34 15 50 0 51 -46 102 -202 72 -220 -13 -9 -107 50 -165 104 l-44 40 -16
-25 c-9 -13 -16 -29 -16 -35 0 -22 -25 -3 -69 51 -24 30 -47 55 -51 57 -9 3
-30 -44 -29 -66 0 -10 5 -6 11 11 9 26 38 39 38 17 0 -24 89 -105 182 -165 54
-36 101 -65 104 -65 15 0 -16 26 -86 70 -99 64 -103 69 -81 99 l18 24 54 -44
c30 -24 75 -57 102 -72 26 -15 47 -30 47 -33 0 -23 -157 -254 -172 -254 -4 0
-8 -9 -8 -19 0 -11 -5 -23 -10 -26 -13 -8 -65 -110 -85 -167 -8 -24 -15 -64
-15 -89 0 -39 6 -54 41 -98 l42 -52 31 30 31 31 18 -49 c9 -27 17 -58 17 -70
l0 -21 -371 0 -371 0 6 53 c14 120 57 488 66 562 57 474 57 474 107 570 32 61
114 175 126 175 4 0 5 -10 0 -22z m1077 -223 c101 -92 174 -135 245 -143 25
-2 45 -8 45 -13 0 -4 -15 -31 -32 -60 -27 -42 -33 -62 -33 -107 0 -62 1 -64
98 -97 97 -34 139 -105 141 -235 1 -51 -5 -78 -27 -124 -23 -50 -30 -58 -49
-53 -16 5 -30 -3 -54 -28 -31 -34 -33 -34 -63 -19 -28 14 -34 14 -67 -2 -30
-14 -42 -15 -68 -6 -18 7 -62 12 -98 12 -75 0 -83 6 -93 68 -4 24 -10 42 -14
40 -4 -2 -33 -16 -64 -33 -54 -29 -56 -29 -90 -13 l-34 16 -16 -56 c-9 -31
-27 -70 -41 -87 l-24 -30 -38 21 c-68 38 -79 38 -119 3 -35 -31 -39 -32 -68
-20 -93 38 -94 37 -128 -2 -17 -21 -36 -37 -41 -37 -14 0 -47 40 -64 77 -33
75 37 236 195 444 92 122 115 225 72 321 -12 26 -26 50 -31 53 -6 3 -10 12
-10 19 0 9 22 15 68 19 89 8 167 36 282 101 52 29 102 54 111 55 8 0 58 -37
109 -84z m2948 -66 c33 -7 59 -20 78 -40 25 -26 29 -38 29 -88 -1 -68 -25
-109 -82 -137 -31 -15 -61 -19 -153 -19 l-115 0 2 25 c7 127 26 246 41 258 19
15 133 16 200 1z m-3018 -744 c0 -35 27 -85 45 -85 8 0 15 -2 15 -4 0 -2 7
-41 16 -86 8 -46 13 -94 9 -107 l-5 -23 -235 0 c-128 0 -236 4 -239 9 -3 5 14
37 39 71 37 49 50 60 65 55 28 -9 74 39 96 101 l17 50 53 -1 c39 0 60 5 81 22
37 29 43 28 43 -2z m218 -101 c20 -13 25 -12 50 6 21 15 36 19 55 15 15 -4 27
-9 27 -11 0 -1 -24 -45 -54 -96 -61 -104 -72 -137 -57 -166 14 -26 132 -68
248 -87 50 -8 107 -22 127 -30 l35 -15 -24 -25 c-17 -16 -25 -35 -25 -58 0
-42 -23 -43 -70 -4 -17 15 -39 27 -49 27 -9 0 -26 6 -37 14 -29 21 -159 58
-186 54 -21 -4 -20 -5 7 -12 42 -10 118 -34 151 -46 l27 -11 -24 -25 c-15 -16
-23 -36 -22 -58 l1 -33 -37 10 c-20 6 -57 25 -83 43 -97 68 -184 98 -285 99
-59 0 -63 2 -63 23 0 12 0 25 -1 29 0 4 27 16 60 28 34 13 67 28 75 34 27 22
41 127 28 216 -17 116 -21 108 46 100 31 -3 67 -13 80 -21z m-565 -35 c12 -7
24 -13 26 -15 2 -2 -15 -25 -37 -51 -27 -33 -46 -71 -61 -119 -24 -82 -26
-116 -9 -214 11 -63 10 -73 -7 -107 -11 -21 -19 -44 -18 -51 1 -9 -5 -11 -15
-6 -30 13 -102 17 -102 5 0 -6 -5 -11 -11 -11 -8 0 -9 13 -4 38 5 31 4 35 -7
24 -7 -7 -13 -32 -13 -54 0 -50 -22 -64 -27 -16 -3 29 -8 34 -42 43 -34 8 -40
7 -57 -14 -11 -13 -19 -20 -19 -16 0 14 24 49 49 71 14 12 23 26 18 30 -10 10
-66 -45 -73 -73 -8 -30 -14 -28 -42 8 l-24 29 54 24 c44 20 64 38 119 113 94
124 113 195 78 288 -11 31 -19 59 -16 62 7 6 75 -15 103 -32 18 -12 25 -9 60
21 44 38 47 38 77 23z m-328 -369 c-4 -6 -125 -10 -331 -10 -209 0 -324 4
-324 10 0 6 117 10 331 10 217 0 328 -3 324 -10z m470 0 c-3 -5 -42 -10 -86
-10 -46 0 -79 4 -79 10 0 6 35 10 86 10 54 0 83 -4 79 -10z m5704 -229 c16
-10 8 -16 -46 -30 -55 -15 -107 -76 -128 -149 -9 -30 -15 -56 -13 -58 9 -8
135 31 154 47 38 35 93 17 60 -20 -14 -16 -46 -93 -46 -112 0 -5 24 15 53 44
93 93 134 127 150 127 18 0 30 -27 16 -35 -17 -11 1 -25 32 -25 16 0 29 -4 29
-10 0 -15 -46 -23 -97 -15 l-46 7 -58 -61 c-31 -33 -68 -83 -81 -110 -24 -51
-37 -61 -56 -38 -8 9 -5 38 12 105 13 51 20 92 15 92 -15 0 -133 -33 -141 -39
-4 -3 -25 -92 -47 -196 -22 -105 -46 -207 -55 -227 l-16 -37 30 1 c26 1 31 6
41 42 32 121 52 176 65 176 25 0 26 -25 4 -91 -44 -133 -63 -283 -41 -318 15
-23 49 -3 92 54 25 33 42 67 43 87 3 40 16 66 45 92 37 34 44 7 15 -63 -14
-35 -28 -86 -31 -112 -5 -46 -4 -49 16 -49 25 0 139 110 185 178 15 24 44 54
65 67 32 21 40 23 72 13 l36 -12 -19 -49 c-12 -32 -18 -68 -16 -101 3 -45 6
-51 27 -54 18 -3 37 10 81 57 63 67 78 76 56 32 -25 -47 -65 -90 -112 -117
-43 -25 -46 -26 -64 -9 -11 10 -23 33 -26 52 l-7 35 -54 -56 c-30 -31 -63 -56
-73 -56 -23 0 -44 26 -36 45 8 22 -8 18 -30 -6 -10 -12 -38 -32 -62 -46 -41
-24 -44 -25 -62 -8 -11 10 -20 30 -20 44 0 25 0 25 -29 -10 -16 -19 -45 -44
-66 -54 -36 -20 -37 -20 -50 -1 -8 10 -17 38 -21 62 l-6 43 -43 -58 c-44 -60
-92 -101 -118 -101 -52 0 -27 170 33 227 27 25 28 28 13 45 -15 17 -15 20 2
38 10 11 24 20 32 20 7 0 18 11 23 24 9 25 44 214 55 301 3 28 8 58 11 68 4
13 -1 17 -20 17 -36 0 -33 27 4 35 21 5 30 13 30 26 0 31 40 120 74 163 44 56
127 91 165 67z m731 -141 c20 -13 8 -21 -47 -31 -28 -6 -58 -19 -72 -33 -24
-25 -24 -25 -5 -51 46 -64 54 -88 40 -110 -16 -24 -99 -57 -121 -48 -31 11
-12 38 30 41 62 5 66 18 21 76 -14 18 -17 17 -59 -20 -143 -126 -313 -130
-291 -7 13 70 103 183 146 183 25 0 68 -25 74 -42 3 -10 -2 -33 -11 -52 -19
-39 -88 -80 -127 -74 -18 2 -24 -2 -26 -24 -7 -59 68 -60 165 -1 75 45 103 71
103 98 0 66 123 131 180 95z m247 -16 c4 -11 -1 -22 -12 -30 -25 -18 -45 -18
-45 1 0 42 -85 -13 -120 -77 -20 -38 -23 -52 -15 -75 15 -43 65 -43 157 0 71
33 133 83 174 140 10 15 30 30 44 33 14 3 34 8 46 11 16 4 26 -4 44 -34 31
-50 30 -92 -2 -141 -67 -101 -253 -126 -234 -31 l5 28 -58 -29 c-139 -71 -236
-56 -233 35 2 61 56 133 127 169 41 22 114 21 122 0z m-1742 -24 c7 -12 -113
-133 -125 -125 -14 9 79 135 100 135 10 0 21 -4 25 -10z m1479 -45 c-7 -17
-40 -29 -55 -19 -9 5 -6 11 6 21 26 18 56 17 49 -2z m-1194 -35 c0 -5 -17 -17
-37 -25 -45 -19 -83 -53 -83 -74 0 -9 18 -33 40 -54 54 -51 53 -77 -4 -117
-44 -30 -80 -38 -90 -21 -8 12 31 44 55 46 11 1 25 7 32 14 9 9 4 18 -23 39
-19 15 -37 25 -40 22 -2 -3 -23 -32 -45 -65 -48 -72 -103 -108 -131 -85 -9 8
-23 30 -31 48 l-14 34 -39 -60 c-52 -82 -102 -107 -119 -60 -8 21 -8 21 -32
-11 -34 -46 -83 -75 -107 -62 -32 17 -42 37 -50 97 l-8 59 -59 -113 c-72 -139
-87 -143 -97 -28 -4 43 -9 83 -11 89 -5 15 -29 -27 -77 -133 -52 -115 -55
-119 -77 -97 -13 12 -18 44 -24 134 -8 126 -2 151 31 133 17 -9 18 -20 13
-100 -3 -51 -2 -90 3 -90 5 0 32 49 61 108 96 196 129 210 124 52 -1 -50 -1
-90 2 -90 3 0 35 56 72 125 48 89 73 125 86 125 27 0 31 -14 14 -54 -8 -19
-15 -55 -15 -80 0 -148 78 -122 162 53 22 47 52 101 66 119 26 34 75 66 85 55
4 -3 17 -6 29 -7 15 -1 22 -7 20 -16 -22 -91 -7 -190 28 -190 37 0 124 119
126 172 2 37 28 74 67 98 33 21 97 27 97 10z m637 -26 c-3 -3 -12 -4 -19 -1
-8 3 -5 6 6 6 11 1 17 -2 13 -5z m-1185 -168 c-20 -51 -61 -124 -73 -131 -13
-9 -11 89 3 103 6 6 11 25 10 41 -1 29 1 31 38 29 l39 -1 -17 -41z m300 12
c-17 -26 -32 -37 -32 -23 0 3 0 16 0 29 0 18 5 24 25 24 l25 0 -18 -30z m808
-88 c12 -7 11 -13 -10 -35 -29 -30 -111 -87 -118 -81 -4 5 74 105 93 118 13
10 17 10 35 -2z m503 -51 c11 -18 -81 -219 -101 -219 -17 0 -10 33 26 140 34
102 50 119 75 79z m-1417 -34 c10 -8 27 -15 37 -15 21 0 22 8 -8 -133 -14 -64
-25 -129 -25 -145 l-1 -27 -13 31 c-16 35 -26 44 -76 61 -28 10 -40 9 -68 -4
-39 -19 -88 -96 -98 -157 -3 -23 -13 -54 -22 -71 l-15 -30 -10 35 c-6 23 -5
78 3 158 7 67 9 133 6 146 -5 19 -1 25 18 30 14 3 38 18 55 32 23 19 38 24 57
20 33 -9 84 17 109 54 23 35 25 35 51 15z m150 -19 c3 -7 -6 -53 -20 -102 -39
-136 -56 -283 -36 -314 8 -12 16 -8 50 25 23 22 58 65 78 95 26 39 38 50 40
38 4 -22 -55 -112 -110 -167 -52 -51 -88 -53 -102 -6 l-8 30 -63 -62 c-81 -80
-157 -97 -181 -42 -9 19 -12 17 -41 -30 -49 -78 -105 -81 -119 -5 -3 19 -9 36
-13 38 -4 3 -20 -23 -36 -57 -36 -73 -86 -130 -108 -121 -43 16 -47 135 -7
214 27 53 77 100 107 100 26 0 28 6 40 135 7 81 10 90 28 90 16 0 20 -6 18
-30 -14 -190 -15 -277 -3 -323 6 -29 16 -55 22 -58 25 -16 85 79 107 171 14
57 45 111 71 125 25 14 77 -6 83 -32 10 -37 -5 -77 -40 -108 -18 -17 -43 -30
-53 -30 -24 0 -28 -41 -5 -60 26 -22 68 -1 133 65 51 52 62 70 62 97 0 44 36
230 56 290 15 47 39 63 50 34z m1167 -238 c14 -21 2 -48 -22 -48 -30 0 -43 31
-24 53 18 20 32 18 46 -5z"/>
<path d="M3560 6071 c0 -10 -16 -151 -35 -312 -20 -162 -40 -334 -46 -384 -5
-49 -14 -119 -19 -155 -5 -36 -11 -84 -15 -108 l-5 -42 387 2 388 3 7 65 c4
36 10 75 13 88 l5 22 -249 0 c-137 0 -252 3 -255 8 -5 9 20 217 29 231 4 7 82
11 234 11 l228 0 6 68 c4 37 8 75 9 85 3 17 -10 18 -218 17 -169 0 -223 2
-231 12 -10 12 -4 98 12 195 l6 33 252 2 252 3 7 55 c4 30 9 70 12 88 l5 32
-390 0 c-375 0 -389 -1 -389 -19z"/>
<path d="M4500 6082 c0 -5 -18 -159 -41 -343 -62 -512 -79 -653 -79 -661 0 -5
56 -8 124 -8 l125 0 6 48 c3 26 10 79 16 117 5 39 23 185 39 325 50 422 60
499 66 515 5 13 -12 15 -125 15 -72 0 -131 -4 -131 -8z"/>
<path d="M7247 6083 c-4 -3 -7 -21 -7 -39 0 -17 -9 -103 -20 -190 -11 -88 -29
-235 -40 -329 -38 -319 -51 -420 -56 -452 l-5 -33 133 0 133 0 33 283 c44 381
80 675 88 726 l7 41 -130 0 c-71 0 -133 -3 -136 -7z"/>
<path d="M7710 6078 c0 -12 -19 -179 -50 -433 -6 -49 -24 -198 -40 -329 -17
-132 -30 -248 -30 -258 0 -16 11 -18 130 -18 75 0 130 4 130 9 0 6 6 61 14
123 8 62 24 194 36 293 37 312 71 579 77 603 l5 22 -136 0 c-102 0 -136 -3
-136 -12z"/>
<path d="M4357 6033 c-2 -4 -7 -26 -11 -48 -4 -22 -9 -52 -12 -67 l-6 -28
-248 0 -248 0 -6 -22 c-3 -13 -9 -58 -12 -102 -7 -72 -6 -78 11 -75 20 4 28
29 40 112 l6 47 249 0 c228 0 249 1 254 18 5 16 20 152 18 162 -2 9 -30 11
-35 3z"/>
<path d="M4773 6028 c-4 -7 -8 -20 -9 -28 -1 -8 -10 -80 -19 -160 -9 -80 -25
-212 -35 -295 -10 -82 -26 -217 -35 -300 -10 -82 -21 -160 -26 -172 -8 -21
-15 -22 -111 -25 -84 -2 -103 -6 -103 -18 0 -12 22 -15 128 -18 98 -2 127 0
127 10 1 7 5 45 10 83 5 39 17 129 25 200 9 72 31 257 50 412 19 155 35 292
35 303 0 22 -24 27 -37 8z"/>
<path d="M7534 6032 c-6 -4 -17 -52 -23 -107 -7 -55 -21 -174 -31 -265 -11
-91 -27 -219 -35 -285 -8 -66 -19 -165 -25 -220 -16 -147 -4 -134 -128 -137
-93 -3 -107 -5 -110 -21 -3 -16 6 -17 129 -15 l133 3 22 180 c20 162 34 277
79 660 25 206 23 230 -11 207z"/>
<path d="M7995 6031 c-5 -9 -43 -307 -81 -631 -8 -74 -22 -184 -29 -245 -8
-60 -15 -115 -15 -122 0 -9 -32 -13 -112 -15 -98 -3 -113 -5 -116 -20 -3 -16
8 -18 131 -18 l135 0 6 48 c4 26 22 178 41 337 19 160 39 322 45 360 5 39 15
120 21 180 6 61 13 113 15 116 2 4 -3 10 -12 13 -20 8 -22 8 -29 -3z"/>
<path d="M6545 5783 c-141 -31 -244 -86 -297 -155 -108 -142 -123 -366 -32
-485 104 -136 406 -166 590 -58 134 78 197 197 198 370 0 84 -3 108 -23 153
-39 87 -118 142 -240 168 -63 13 -154 17 -196 7z m137 -156 c10 -7 28 -32 40
-55 18 -38 20 -56 15 -135 -9 -175 -76 -277 -181 -277 -48 0 -77 15 -104 55
-60 86 -25 315 60 391 46 42 120 51 170 21z"/>
<path d="M6537 5600 c-40 -32 -65 -81 -82 -159 -20 -95 -19 -147 5 -198 23
-53 35 -55 25 -6 -10 56 14 194 44 249 31 57 81 94 127 94 38 0 42 7 17 26
-28 21 -106 17 -136 -6z"/>
<path d="M8385 5771 c-220 -54 -349 -232 -333 -461 13 -185 152 -290 383 -290
276 0 464 173 466 429 2 180 -85 289 -259 326 -93 19 -168 18 -257 -4z m193
-148 c52 -33 71 -139 47 -258 -29 -143 -92 -210 -188 -202 -90 8 -122 65 -115
206 8 139 54 232 133 267 34 16 88 10 123 -13z"/>
<path d="M8434 5601 c-54 -33 -94 -148 -94 -268 0 -53 21 -123 37 -123 4 0 8
42 8 93 0 172 66 276 177 277 l33 1 -24 19 c-30 26 -96 26 -137 1z"/>
<path d="M9088 5763 c-60 -29 -83 -67 -83 -138 0 -69 18 -101 74 -131 98 -53
221 20 221 132 0 108 -115 183 -212 137z m133 -43 c10 -6 26 -24 34 -40 40
-78 -13 -169 -100 -170 -86 0 -140 70 -116 151 23 78 100 102 182 59z"/>
<path d="M9097 5703 c-4 -3 -7 -39 -7 -80 0 -66 2 -73 20 -73 16 0 20 7 20 30
0 19 5 30 14 30 8 0 19 -13 25 -30 13 -40 44 -42 35 -2 -4 15 -11 32 -16 38
-5 7 -2 16 7 24 35 29 3 70 -54 70 -21 0 -41 -3 -44 -7z m71 -42 c-5 -24 -38
-27 -38 -3 0 10 3 21 6 25 11 11 35 -5 32 -22z"/>
<path d="M4255 5563 c-10 -94 7 -88 -244 -90 -123 0 -225 -3 -227 -6 -3 -3
-11 -46 -18 -97 -11 -78 -10 -93 1 -97 23 -9 32 8 42 81 5 37 12 70 14 73 3 2
104 4 226 3 255 -1 234 -10 246 113 6 73 6 77 -13 77 -18 0 -21 -9 -27 -57z"/>
<path d="M7015 5580 c14 -55 17 -169 6 -222 -36 -170 -160 -298 -336 -343 -77
-20 -226 -19 -294 1 -65 19 -76 12 -24 -14 131 -66 348 -59 487 16 62 33 138
110 165 166 59 122 66 280 17 372 -15 27 -24 38 -21 24z"/>
<path d="M8918 5540 c40 -244 -93 -457 -327 -522 -91 -25 -239 -25 -314 1 -67
23 -76 12 -14 -17 70 -33 127 -45 217 -45 247 -2 420 121 470 331 23 99 11
230 -25 277 -14 18 -14 17 -7 -25z"/>
<path d="M4246 5169 c-3 -17 -6 -46 -6 -63 0 -17 -4 -37 -8 -43 -6 -10 -96
-13 -373 -15 -316 -3 -364 -5 -364 -18 0 -13 51 -15 386 -18 322 -2 388 0 392
12 3 7 9 50 12 95 7 77 7 81 -12 81 -15 0 -22 -9 -27 -31z"/>
<path d="M5601 4803 c-6 -54 -14 -115 -17 -135 -5 -30 -3 -38 10 -38 10 0 13
-6 10 -15 -5 -13 8 -15 82 -15 139 0 193 39 202 144 4 50 2 58 -28 95 -39 48
-75 61 -176 61 l-72 0 -11 -97z m87 37 c-14 -22 -24 -19 -15 5 4 8 11 15 17
15 6 0 6 -7 -2 -20z m92 -19 c13 -25 13 -77 0 -102 -21 -38 -109 -65 -126 -37
-5 7 -3 8 6 3 17 -11 30 13 30 57 0 57 16 91 40 83 11 -4 20 -2 20 4 0 18 19
12 30 -8z m-113 -63 c-3 -8 -6 -5 -6 6 -1 11 2 17 5 13 3 -3 4 -12 1 -19z
m193 -36 c-12 -46 -60 -92 -93 -92 -19 1 -17 3 8 14 41 18 71 54 80 94 4 18 9
31 12 29 2 -3 -1 -23 -7 -45z"/>
<path d="M5930 4893 c0 -5 -7 -62 -15 -128 -18 -147 -18 -135 0 -135 9 0 12
-6 9 -15 -5 -13 10 -15 100 -15 l106 0 0 27 c0 25 0 26 -20 8 -11 -10 -20 -13
-20 -7 0 7 4 12 8 12 5 0 9 7 9 15 0 12 -14 15 -63 15 -35 0 -66 4 -69 10 -3
6 1 7 9 4 11 -4 16 0 16 10 0 13 12 16 64 16 55 0 64 3 69 20 7 27 -11 36 -28
14 -8 -11 -15 -14 -15 -8 0 5 5 15 11 21 20 20 1 30 -49 25 -38 -3 -51 0 -62
14 -10 12 -11 15 -2 10 7 -4 20 -2 28 5 9 7 41 13 71 13 41 1 59 5 67 18 5 9
6 21 2 25 -5 4 -11 2 -13 -4 -3 -7 -12 -13 -21 -13 -12 0 -13 3 -4 12 31 31
14 38 -88 38 -55 0 -100 -3 -100 -7z m80 -48 c-7 -9 -15 -13 -17 -11 -7 7 7
26 19 26 6 0 6 -6 -2 -15z m-20 -120 c-7 -9 -15 -13 -17 -11 -7 7 7 26 19 26
6 0 6 -6 -2 -15z"/>
<path d="M6307 4893 c-3 -5 -10 -51 -16 -103 -6 -52 -14 -110 -17 -127 -4 -25
-1 -33 11 -33 8 0 15 -7 15 -15 0 -13 15 -15 97 -13 84 3 98 6 101 21 4 20
-24 24 -31 5 -2 -8 -8 -9 -13 -4 -5 5 -4 11 4 13 6 3 12 11 12 19 0 10 -15 14
-59 14 -33 0 -63 5 -66 11 -4 6 0 9 11 7 19 -3 19 -2 37 135 5 37 4 47 -8 47
-8 0 -16 -13 -18 -32 -2 -18 -3 -12 -1 15 3 46 2 47 -26 47 -16 0 -31 -3 -33
-7z"/>
<path d="M6582 4880 c-49 -30 -72 -75 -72 -141 0 -59 7 -70 75 -126 33 -28 85
-30 142 -4 48 22 67 47 85 114 11 43 10 51 -7 84 -11 20 -33 49 -48 65 -25 24
-36 28 -85 28 -39 0 -67 -6 -90 -20z m45 -43 c-15 -12 -32 -35 -37 -52 -10
-30 -10 -30 -5 5 5 34 35 70 59 70 6 0 -2 -10 -17 -23z m87 -13 c10 -26 7 -73
-8 -108 -16 -38 -58 -58 -94 -45 -22 8 -31 29 -12 29 6 0 10 17 10 38 0 42 21
79 54 92 32 13 43 12 50 -6z m61 -134 c-17 -32 -69 -70 -95 -70 -8 1 -1 7 15
14 35 15 85 70 86 94 0 10 3 12 5 5 3 -6 -2 -26 -11 -43z"/>
<path d="M6870 4874 c-26 -22 -31 -33 -28 -62 4 -43 60 -93 110 -97 18 -2 34
-3 36 -4 1 -1 -2 -9 -7 -20 -16 -30 -60 -33 -86 -6 -12 14 -29 22 -41 20 -10
-2 -22 -4 -26 -4 -18 -2 -6 -32 27 -66 24 -27 45 -38 73 -42 70 -9 139 27 156
83 10 34 -40 90 -94 105 -60 16 -67 24 -37 44 21 14 29 14 46 3 12 -7 21 -16
21 -20 0 -5 16 -8 35 -8 46 0 46 20 0 65 -31 32 -39 35 -94 35 -50 0 -65 -4
-91 -26z m67 -30 c-16 -14 -31 -24 -33 -21 -5 5 44 47 55 47 3 0 -7 -12 -22
-26z m113 -178 c-12 -24 -65 -54 -76 -44 -2 3 8 11 24 17 16 7 35 23 42 37 8
13 16 22 18 19 3 -3 0 -16 -8 -29z"/>
<path d="M7246 4858 c-22 -162 -26 -223 -17 -226 6 -2 11 -10 11 -18 0 -9 11
-14 35 -14 36 0 40 6 47 70 3 23 8 25 60 30 38 3 67 13 89 29 24 18 31 20 26
7 -13 -33 36 -106 91 -135 56 -30 162 8 194 69 28 53 24 121 -9 169 -34 49
-60 61 -124 61 -61 0 -104 -21 -124 -61 l-16 -31 -27 36 c-34 44 -67 56 -158
56 l-73 0 -5 -42z m371 -19 c-20 -17 -37 -38 -38 -47 0 -11 -2 -13 -6 -4 -7
17 23 61 50 72 34 14 34 12 -6 -21z m-289 1 c-14 -22 -24 -19 -15 5 4 8 11 15
17 15 6 0 6 -7 -2 -20z m376 -25 c9 -35 -9 -105 -32 -128 -21 -20 -67 -26 -83
-10 -12 12 13 108 36 133 10 11 24 20 32 20 7 0 13 4 13 10 0 19 28 -2 34 -25z
m-304 0 c0 -14 -8 -29 -19 -35 -26 -14 -68 -13 -77 2 -5 7 -2 9 9 5 10 -4 18
0 21 11 5 15 37 37 59 41 4 0 7 -10 7 -24z m70 -35 c0 -13 -37 -50 -49 -50 -6
0 2 13 17 29 32 34 32 34 32 21z m294 -86 c-17 -36 -66 -74 -94 -74 -8 1 2 10
23 21 42 22 76 70 78 109 2 23 2 23 6 3 2 -12 -4 -39 -13 -59z m-450 22 c-21
-15 -30 -14 -19 3 3 6 14 11 23 11 13 0 13 -2 -4 -14z m73 8 c-3 -3 -12 -4
-19 -1 -8 3 -5 6 6 6 11 1 17 -2 13 -5z m-101 -101 c-10 -10 -19 5 -10 18 6
11 8 11 12 0 2 -7 1 -15 -2 -18z"/>
<path d="M7836 4868 c-20 -141 -27 -233 -17 -236 6 -2 11 -10 11 -18 0 -21
188 -20 196 1 8 20 34 19 34 0 0 -13 15 -15 98 -13 95 3 97 3 100 28 2 23 1
24 -11 8 -8 -10 -20 -18 -28 -18 -10 1 -9 4 4 14 32 25 19 36 -42 36 -33 0
-63 4 -66 10 -3 5 0 7 9 4 18 -7 23 9 31 109 4 49 3 77 -3 77 -6 0 -13 -8 -16
-17 -2 -10 -4 -4 -3 12 2 27 -1 30 -30 33 -27 3 -33 -1 -37 -20 -5 -21 -26
-206 -26 -226 0 -6 -8 -12 -17 -16 -10 -3 -25 -9 -33 -12 -9 -3 -8 0 4 10 28
23 10 36 -49 36 -30 0 -57 4 -60 10 -3 5 0 7 8 4 16 -6 19 9 33 129 5 48 4 57
-10 57 -9 0 -15 6 -13 13 1 7 -11 13 -30 15 -29 3 -32 0 -37 -30z m51 -150
c-3 -7 -5 -2 -5 12 0 14 2 19 5 13 2 -7 2 -19 0 -25z"/>
<path d="M8343 4880 c-36 -22 -57 -57 -67 -113 -11 -57 8 -100 62 -142 42 -33
52 -36 94 -32 91 8 148 72 148 166 0 43 -5 53 -43 95 -42 45 -45 46 -103 46
-41 0 -69 -6 -91 -20z m62 -32 c-27 -16 -43 -38 -50 -71 -4 -16 -9 -26 -12
-23 -8 8 15 67 34 88 9 10 23 18 32 18 12 -1 12 -3 -4 -12z m78 -37 c7 -33 -6
-96 -24 -117 -37 -45 -104 -35 -93 14 21 92 25 101 54 114 17 7 30 16 30 20 0
20 28 -7 33 -31z m47 -138 c-24 -31 -57 -52 -80 -52 -8 0 2 9 22 19 20 11 45
34 55 50 10 17 19 26 21 20 2 -5 -6 -22 -18 -37z"/>
<path d="M8629 4871 c-16 -16 -29 -38 -29 -49 0 -46 95 -121 134 -106 19 7 22
-19 4 -33 -29 -22 -48 -22 -77 2 -45 39 -80 29 -67 -18 9 -31 73 -77 109 -77
78 0 147 44 147 94 0 36 -61 93 -108 101 -36 6 -70 25 -44 25 4 0 18 9 30 20
21 20 21 20 40 -5 13 -17 30 -25 50 -25 46 0 46 24 1 64 -36 33 -44 36 -100
36 -54 0 -64 -3 -90 -29z m90 -14 c-2 -1 -15 -11 -28 -22 l-24 -20 12 23 c6
12 19 22 28 22 9 0 14 -1 12 -3z m97 -192 c-6 -15 -65 -49 -73 -42 -2 3 8 11
24 19 15 7 32 23 38 36 10 23 21 12 11 -13z"/>
<path d="M2830 6011 c0 -5 44 -24 98 -41 123 -40 248 -50 306 -26 22 9 37 19
33 22 -3 3 -14 1 -25 -5 -12 -6 -61 -11 -111 -11 -74 0 -107 6 -183 31 -51 17
-99 33 -105 35 -7 3 -13 1 -13 -5z"/>
<path d="M1736 5848 c-9 -12 -16 -39 -16 -60 0 -45 -11 -48 -40 -11 -30 38
-45 18 -45 -62 0 -36 -3 -65 -7 -65 -4 0 -23 14 -43 31 l-35 31 0 -39 c0 -22
7 -62 15 -88 8 -27 13 -51 10 -53 -2 -2 -20 4 -40 13 -19 10 -38 15 -41 12 -9
-9 27 -70 65 -110 65 -69 103 -80 294 -85 111 -3 173 0 179 6 8 8 -35 10 -143
9 -194 -3 -246 11 -319 82 -54 51 -65 77 -27 67 51 -14 437 -86 462 -86 37 0
2 18 -47 24 -64 8 -269 45 -320 57 -31 8 -39 16 -52 52 -18 53 -28 97 -21 97
3 0 18 -9 33 -20 28 -21 298 -137 384 -166 27 -9 52 -13 55 -10 3 3 -3 9 -13
12 -149 53 -333 131 -356 152 -13 11 -18 30 -18 74 0 32 3 58 6 58 4 0 35 -25
70 -55 34 -30 91 -73 126 -94 84 -51 210 -113 216 -106 7 7 10 5 -114 69 -61
32 -136 77 -167 102 -49 38 -57 49 -56 77 2 72 30 113 43 62 8 -33 105 -131
181 -182 104 -70 145 -94 145 -84 0 5 -33 29 -73 54 -92 58 -177 127 -177 144
0 7 -6 13 -13 13 -8 0 -26 23 -41 50 -15 28 -31 50 -36 50 -5 0 -16 -10 -24
-22z"/>
<path d="M5515 5868 c-5 -16 -25 -186 -25 -215 0 -16 6 -23 19 -23 21 0 26 19
37 134 l7 78 113 -4 c63 -2 114 1 114 5 0 4 -16 15 -35 23 -45 18 -224 20
-230 2z"/>
<path d="M8386 3685 c-31 -41 -65 -112 -66 -137 0 -45 53 0 109 92 45 74 8
113 -43 45z"/>
<path d="M7856 3628 c-52 -47 -101 -188 -65 -188 16 0 67 59 100 115 34 59 38
95 10 95 -11 0 -31 -10 -45 -22z"/>
<path d="M8521 4203 c-37 -45 -38 -53 -7 -53 34 0 78 38 74 64 -5 34 -33 30
-67 -11z"/>
<path d="M9354 4198 c-42 -33 -63 -58 -84 -103 -43 -90 54 -85 120 7 31 43 38
86 18 106 -16 16 -21 15 -54 -10z m6 -61 c0 -2 -10 -12 -22 -23 l-23 -19 19
23 c18 21 26 27 26 19z"/>
<path d="M7284 4023 c-44 -65 -77 -174 -56 -187 23 -14 101 112 105 170 3 49
-22 57 -49 17z"/>
<path d="M7217 3477 c-8 -12 -18 -37 -21 -55 -10 -43 13 -43 48 -1 29 34 32
49 14 67 -17 17 -24 15 -41 -11z"/>
<path d="M6900 3368 c-46 -50 -77 -194 -43 -205 26 -9 113 176 99 212 -8 21
-32 18 -56 -7z"/>
<path d="M2908 6533 c7 -3 16 -2 19 1 4 3 -2 6 -13 5 -11 0 -14 -3 -6 -6z"/>
<path d="M2167 6413 c-12 -12 -7 -22 8 -17 8 4 15 10 15 15 0 11 -14 12 -23 2z"/>
<path d="M2048 6392 c-10 -2 -18 -8 -18 -13 0 -11 11 -11 30 1 18 11 11 18
-12 12z"/>
<path d="M1940 6360 c0 -5 5 -10 10 -10 6 0 10 5 10 10 0 6 -4 10 -10 10 -5 0
-10 -4 -10 -10z"/>
<path d="M2355 6094 c-167 -54 -209 -64 -258 -62 -31 2 -57 0 -57 -4 0 -5 30
-8 66 -8 52 0 101 11 228 51 88 28 183 57 210 64 26 8 51 16 54 19 17 18 -66
-3 -243 -60z"/>
<path d="M6277 3968 c-24 -19 -36 -59 -43 -148 -6 -75 -8 -79 -24 -65 -26 23
-79 18 -148 -15 -35 -17 -76 -30 -91 -30 -29 0 -61 -26 -61 -51 0 -8 -7 -23
-15 -33 -20 -27 -19 -52 4 -73 23 -23 35 -59 21 -68 -15 -9 -12 -61 4 -74 20
-17 28 -72 15 -109 -9 -27 -8 -37 6 -58 15 -23 22 -26 54 -21 49 7 183 82 243
136 36 32 54 42 70 38 54 -15 129 54 193 177 43 84 47 138 11 161 -36 24 -60
6 -101 -75 -19 -39 -39 -70 -43 -70 -4 0 -3 64 1 142 13 213 13 209 -12 230
-27 21 -60 23 -84 6z m56 -88 c-2 -25 -4 -118 -5 -207 -3 -192 4 -211 56 -151
17 20 47 68 66 107 19 39 38 71 43 71 29 1 -40 -141 -104 -212 -52 -59 -70
-59 -98 -3 -19 38 -26 219 -13 333 12 103 16 115 40 110 13 -3 16 -13 15 -48z
m-225 -202 c-100 -54 -100 -55 -92 -117 8 -60 11 -60 107 -5 39 23 57 29 57
19 0 -16 -28 -39 -99 -80 l-52 -30 7 -60 c3 -33 8 -62 10 -65 8 -8 152 69 188
100 51 45 45 15 -7 -34 -36 -35 -219 -146 -240 -146 -10 0 -9 34 2 46 13 14
-7 125 -25 139 -14 10 -14 12 0 24 10 8 14 23 11 37 -3 13 -7 35 -10 49 -3 14
-12 25 -20 25 -17 0 -20 16 -5 25 6 3 10 17 10 31 0 19 5 24 25 24 14 0 49 12
78 27 112 57 163 49 55 -9z m118 -23 c0 -39 0 -39 -27 -24 -16 8 -31 4 -75
-22 -30 -17 -58 -28 -62 -24 -10 9 22 31 91 63 31 14 57 30 57 34 0 4 4 8 8 8
4 0 8 -16 8 -35z m-17 -176 c-19 -16 -55 -40 -81 -54 -45 -25 -48 -25 -48 -7
0 12 20 32 54 55 30 20 63 47 73 61 l18 24 9 -26 c8 -22 4 -29 -25 -53z"/>
</g>
</svg>
